<?xml version="1.0" encoding="utf-8"?>
<!-- Generator: Adobe Illustrator 23.0.2, SVG Export Plug-In . SVG Version: 6.00 Build 0)  -->
<svg version="1.1" id="图层_1" xmlns="http://www.w3.org/2000/svg" xmlns:xlink="http://www.w3.org/1999/xlink" x="0px" y="0px"
	 viewBox="0 0 230 230" style="enable-background:new 0 0 230 230;" xml:space="preserve">
<style type="text/css">
	.st0{fill:#C81431;}
</style>
<path id="XMLID_65_" class="st0" d="M83.53,66.75v73.41c0,4.95-5.35,8.04-9.63,5.56l-27.48-15.87c-1.99-1.15-3.21-3.27-3.21-5.56
	l-0.02-41.63c0-2.29,1.22-4.42,3.21-5.56l27.5-15.9C78.18,58.72,83.53,61.81,83.53,66.75z"/>
<path id="XMLID_64_" class="st0" d="M179.03,109.95l-27.51,15.89c-4.28,2.47-9.63-0.62-9.63-5.56V66.73c0-4.94,5.35-8.03,9.63-5.56
	l27.5,15.86c1.99,1.15,3.21,3.27,3.21,5.56l0.01,21.8C182.24,106.68,181.01,108.8,179.03,109.95z"/>
<path id="XMLID_63_" class="st0" d="M101.8,45.06L101.8,45.06c-6.74,3.89-10.88,11.08-10.88,18.86V181.3c0,2.47,2.68,4.02,4.82,2.78
	l6.69-3.86c19.87-11.47,32.11-32.68,32.11-55.63V63.96c0-7.79-4.16-14.98-10.9-18.87l-0.05-0.03
	C116.83,41.17,108.53,41.17,101.8,45.06z"/>
</svg>
