<?xml version="1.0" encoding="utf-8"?>
<!-- Generator: Adobe Illustrator 23.0.2, SVG Export Plug-In . SVG Version: 6.00 Build 0)  -->
<svg version="1.1" id="图层_1" xmlns="http://www.w3.org/2000/svg" xmlns:xlink="http://www.w3.org/1999/xlink" x="0px" y="0px"
	 viewBox="0 0 182 182" style="enable-background:new 0 0 182 182;" xml:space="preserve">
<style type="text/css">
	.st0{fill:#FFFFFF;}
</style>
<path id="XMLID_65_" class="st0" d="M56.5,34.5v89.1c0,6-6.4,9.7-11.7,6.8l-33.4-19.3c-2.4-1.3-3.9-4-3.9-6.8V53.8
	c0-2.8,1.5-5.3,3.9-6.8l33.4-19.3C50.1,24.6,56.5,28.4,56.5,34.5z"/>
<path id="XMLID_64_" class="st0" d="M172.5,86.8l-33.4,19.3c-5.2,3-11.7-0.7-11.7-6.8v-65c0-6,6.6-9.7,11.7-6.8l33.4,19.3
	c2.4,1.5,3.9,4,3.9,6.8v26.5C176.4,82.9,174.9,85.5,172.5,86.8z"/>
<path id="XMLID_63_" class="st0" d="M78.8,8.1L78.8,8.1C70.6,12.9,65.5,21.5,65.5,31v142.6c0,3,3.3,4.9,5.8,3.4l8.1-4.7
	c24.2-14,39-39.7,39-67.5V31.1c0-9.5-5.1-18.2-13.2-23h-0.1C97,3.4,86.9,3.4,78.8,8.1z"/>
</svg>
