<svg xmlns="http://www.w3.org/2000/svg" width="176.2" height="213.6" viewBox="0 0 176.2 213.6">
  <g id="组_46" data-name="组 46" transform="translate(-354.5 -87)">
    <g id="组_45" data-name="组 45" transform="translate(177 9)">
      <g id="组_36" data-name="组 36">
        <path id="路径_12" data-name="路径 12" d="M273.3,273.4a2.271,2.271,0,0,1-1.6-.6l-6-5.7-6,5.6a2.354,2.354,0,0,1-3.3-.1,2.414,2.414,0,0,1,0-3.4l7-6.6v-3.5l-13-11.9a2.168,2.168,0,0,1,1.4-3.8h27.3a2.04,2.04,0,0,1,2,1.4,2.346,2.346,0,0,1-.5,2.4L268,259.1v3.7l6.7,6.4a2.478,2.478,0,0,1,.1,3.4A1.645,1.645,0,0,1,273.3,273.4Zm-.1-2.2Zm-7.5-7.1h0c.1,0,.1-.1,0,0Zm-8.1-16.2,8.2,7.5,8-7.5Zm-4.7-1.8.2.2v-.2Zm25.2,0h0c0,.1,0,.1.1.1l.1-.1Zm.9-.7Zm-26.8,0Z" fill="#fff" stroke="#fff" stroke-miterlimit="10" stroke-width="2"/>
      </g>
      <g id="组_37" data-name="组 37">
        <path id="路径_13" data-name="路径 13" d="M343.1,199.2h-2.2a1.155,1.155,0,0,1-1.2-1.2V169.6l-33.3-27.5a2.292,2.292,0,0,1-1.5-1.2l-18.3-15.1H243.7l-18.3,15.1a2.041,2.041,0,0,1-1.5,1.2l-33.4,27.5V198a1.155,1.155,0,0,1-1.2,1.2h-2A1.24,1.24,0,0,1,186,198V168l25.6-87.3a2.075,2.075,0,0,1,.6-1s.2-.1.2-.2a2.7,2.7,0,0,1,1.1-.5h.2a2.345,2.345,0,0,1,1.1.2,2.9,2.9,0,0,1,1,.8c0,.1.1.1.1.2l28.3,41H286l28.4-41.1a2.1,2.1,0,0,1,1.1-.9,2.92,2.92,0,0,1,.9-.2h.2a1.881,1.881,0,0,1,1.1.5c.1,0,.2.2.2.2a2.075,2.075,0,0,1,.6,1L344.1,168c0,.1.1.2.1.3V198A1.073,1.073,0,0,1,343.1,199.2ZM213.2,92.1l-20.8,70.1,28.5-23.5Zm96.2,46.6,28.4,23.4L317.1,92.3ZM217.7,91.9l7.2,43.5,15-12.4ZM290.4,123l15,12.4,7.2-43.5Zm-47.6.4Zm44.7,0Z" fill="#fff" stroke="#fff" stroke-miterlimit="10" stroke-width="2"/>
      </g>
      <g id="组_38" data-name="组 38">
        <path id="路径_14" data-name="路径 14" d="M295.4,290.6H235a1.99,1.99,0,0,1-1.6-.7l-46.6-46.6a2.36,2.36,0,0,1-.7-1.6V237a1.155,1.155,0,0,1,1.2-1.2h2.1a1.155,1.155,0,0,1,1.2,1.2v3.7L235.9,286h58.5l45.3-45.3V237a1.155,1.155,0,0,1,1.2-1.2H343a1.155,1.155,0,0,1,1.2,1.2v4.7a1.99,1.99,0,0,1-.7,1.6L297,290A2.452,2.452,0,0,1,295.4,290.6Zm45.5-49.3Z" fill="#fff" stroke="#fff" stroke-miterlimit="10" stroke-width="2"/>
      </g>
      <g id="组_39" data-name="组 39">
        <path id="路径_15" data-name="路径 15" d="M323.5,199.2h-2.2a1.4,1.4,0,0,1-1.2-.9l-3.7-12.4-22.3-4.7a2.068,2.068,0,0,1-1.4-1l-9.2-14-16,26.6a2.264,2.264,0,0,1-1.1,1.7,2.967,2.967,0,0,1-2.6,0,2.454,2.454,0,0,1-1.1-1.7l-16-26.6-9.2,14a2.068,2.068,0,0,1-1.4,1l-22.3,4.7-3.7,12.4a1.292,1.292,0,0,1-1.2.9h-2.2a1.25,1.25,0,0,1-1.2-1.6l4.3-14.3a2.3,2.3,0,0,1,1.7-1.6l22.7-4.8,10.7-16.3a2.011,2.011,0,0,1,2.2-1,2.226,2.226,0,0,1,1.7,1.1l16.3,27.2,16.3-27.2a2.144,2.144,0,0,1,1.9-1.1,1.8,1.8,0,0,1,1.9,1L296,177l22.7,4.8a2.3,2.3,0,0,1,1.7,1.6l4.3,14.3a1.389,1.389,0,0,1-.2,1.1A2.112,2.112,0,0,1,323.5,199.2Z" fill="#fff" stroke="#fff" stroke-miterlimit="10" stroke-width="2"/>
      </g>
      <g id="组_40" data-name="组 40">
        <path id="路径_16" data-name="路径 16" d="M295.3,232.3H184.7a6.124,6.124,0,0,1-6.1-6.1v-3.1a1.155,1.155,0,0,1,1.2-1.2h2.1a1.155,1.155,0,0,1,1.2,1.2v3.1a1.58,1.58,0,0,0,1.6,1.6H295.3a1.155,1.155,0,0,1,1.2,1.2v2.1A1.155,1.155,0,0,1,295.3,232.3Z" fill="#fff" stroke="#fff" stroke-miterlimit="10" stroke-width="2"/>
      </g>
      <g id="组_41" data-name="组 41">
        <path id="路径_17" data-name="路径 17" d="M346.6,232.3H316a1.155,1.155,0,0,1-1.2-1.2V229a1.155,1.155,0,0,1,1.2-1.2h30.6a1.58,1.58,0,0,0,1.6-1.6v-3.1a1.155,1.155,0,0,1,1.2-1.2h2.1a1.155,1.155,0,0,1,1.2,1.2v3.1A6.061,6.061,0,0,1,346.6,232.3Z" fill="#fff" stroke="#fff" stroke-miterlimit="10" stroke-width="2"/>
      </g>
      <g id="组_42" data-name="组 42">
        <path id="路径_18" data-name="路径 18" d="M181.8,213.2h-2.1a1.155,1.155,0,0,1-1.2-1.2v-3.1a6.124,6.124,0,0,1,6.1-6.1H295.2a1.155,1.155,0,0,1,1.2,1.2v2.1a1.155,1.155,0,0,1-1.2,1.2H184.7a1.58,1.58,0,0,0-1.6,1.6V212A1.389,1.389,0,0,1,181.8,213.2Z" fill="#fff" stroke="#fff" stroke-miterlimit="10" stroke-width="2"/>
      </g>
      <g id="组_43" data-name="组 43">
        <path id="路径_19" data-name="路径 19" d="M351.5,213.2h-2.1a1.155,1.155,0,0,1-1.2-1.2v-3.1a1.58,1.58,0,0,0-1.6-1.6H316a1.155,1.155,0,0,1-1.2-1.2V204a1.155,1.155,0,0,1,1.2-1.2h30.6a6.124,6.124,0,0,1,6.1,6.1V212A1.216,1.216,0,0,1,351.5,213.2Z" fill="#fff" stroke="#fff" stroke-miterlimit="10" stroke-width="2"/>
      </g>
      <g id="组_44" data-name="组 44">
        <path id="路径_20" data-name="路径 20" d="M305.6,225.3a2.326,2.326,0,0,1-2.3-2.3v-3.3h-4a2.3,2.3,0,0,1,0-4.6h4V212a2.3,2.3,0,1,1,4.6,0v3.3h4a2.3,2.3,0,0,1,0,4.6h-4v3.3A2.227,2.227,0,0,1,305.6,225.3Zm-.4-7.8a.4.4,0,1,0,.8,0,.4.4,0,0,0-.8,0Z" fill="#fff" stroke="#fff" stroke-miterlimit="10" stroke-width="2"/>
      </g>
    </g>
  </g>
</svg>
